<svg xmlns="http://www.w3.org/2000/svg" xmlns:xlink="http://www.w3.org/1999/xlink" width="500" zoomAndPan="magnify" viewBox="0 0 375 374.999991" height="500" preserveAspectRatio="xMidYMid meet" version="1.0"><defs><clipPath id="e0b489fd66"><path d="M 143 112.5 L 237 112.5 L 237 224 L 143 224 Z M 143 112.5 " clip-rule="nonzero"/></clipPath><clipPath id="bd169c17c0"><path d="M 143 112.5 L 237 112.5 L 237 224 L 143 224 Z M 143 112.5 " clip-rule="nonzero"/></clipPath></defs><path fill="#ff9900" d="M 241.632812 233.597656 C 180.914062 262.492188 143.230469 238.320312 119.105469 223.632812 C 117.613281 222.710938 115.078125 223.851562 117.277344 226.378906 C 125.3125 236.121094 151.648438 259.605469 186.023438 259.605469 C 220.398438 259.605469 240.890625 240.832031 243.449219 237.558594 C 245.996094 234.3125 244.199219 232.523438 241.625 233.59375 Z M 258.683594 224.183594 C 257.054688 222.0625 248.773438 221.664062 243.554688 222.308594 C 238.335938 222.925781 230.496094 226.121094 231.175781 228.039062 C 231.527344 228.757812 232.242188 228.4375 235.824219 228.113281 C 239.421875 227.757812 249.496094 226.484375 251.597656 229.230469 C 253.707031 231.996094 248.382812 245.160156 247.410156 247.285156 C 246.46875 249.40625 247.765625 249.957031 249.53125 248.539062 C 251.277344 247.125 254.421875 243.464844 256.539062 238.285156 C 258.636719 233.074219 259.917969 225.808594 258.679688 224.191406 Z M 258.683594 224.183594 " fill-opacity="1" fill-rule="nonzero"/><g clip-path="url(#e0b489fd66)"><path fill="#ffffff" d="M 200.800781 174.632812 C 200.800781 182.21875 200.996094 188.539062 197.160156 195.273438 C 194.066406 200.746094 189.164062 204.113281 183.691406 204.113281 C 176.21875 204.113281 171.867188 198.417969 171.867188 190.015625 C 171.867188 173.425781 186.730469 170.417969 200.800781 170.417969 Z M 220.425781 222.074219 C 219.140625 223.226562 217.28125 223.308594 215.832031 222.539062 C 209.371094 217.179688 208.222656 214.6875 204.660156 209.5625 C 193.984375 220.460938 186.433594 223.714844 172.578125 223.714844 C 156.210938 223.714844 143.457031 213.617188 143.457031 193.390625 C 143.457031 177.59375 152.023438 166.839844 164.207031 161.582031 C 174.773438 156.925781 189.527344 156.109375 200.800781 154.820312 L 200.800781 152.300781 C 200.800781 147.675781 201.160156 142.203125 198.445312 138.203125 C 196.066406 134.617188 191.519531 133.136719 187.519531 133.136719 C 180.105469 133.136719 173.480469 136.945312 171.867188 144.828125 C 171.539062 146.582031 170.253906 148.308594 168.496094 148.390625 L 149.609375 146.367188 C 148.023438 146.007812 146.269531 144.722656 146.707031 142.285156 C 151.066406 119.402344 171.730469 112.5 190.234375 112.5 C 199.707031 112.5 212.078125 115.019531 219.550781 122.191406 C 229.023438 131.03125 228.117188 142.828125 228.117188 155.667969 L 228.117188 185.996094 C 228.117188 195.113281 231.894531 199.109375 235.449219 204.039062 C 236.707031 205.792969 236.984375 207.898438 235.398438 209.214844 C 231.425781 212.523438 224.371094 218.6875 220.480469 222.132812 L 220.425781 222.078125 Z M 220.425781 222.074219 " fill-opacity="1" fill-rule="evenodd"/></g><path fill="#ff9900" d="M 241.632812 233.597656 C 180.914062 262.492188 143.230469 238.320312 119.105469 223.632812 C 117.613281 222.710938 115.078125 223.851562 117.277344 226.378906 C 125.3125 236.121094 151.648438 259.605469 186.023438 259.605469 C 220.398438 259.605469 240.890625 240.832031 243.449219 237.558594 C 245.996094 234.3125 244.199219 232.523438 241.625 233.59375 Z M 258.683594 224.183594 C 257.054688 222.0625 248.773438 221.664062 243.554688 222.308594 C 238.335938 222.925781 230.496094 226.121094 231.175781 228.039062 C 231.527344 228.757812 232.242188 228.4375 235.824219 228.113281 C 239.421875 227.757812 249.496094 226.484375 251.597656 229.230469 C 253.707031 231.996094 248.382812 245.160156 247.410156 247.285156 C 246.46875 249.40625 247.765625 249.957031 249.53125 248.539062 C 251.277344 247.125 254.421875 243.464844 256.539062 238.285156 C 258.636719 233.074219 259.917969 225.808594 258.679688 224.191406 Z M 258.683594 224.183594 " fill-opacity="1" fill-rule="nonzero"/><g clip-path="url(#bd169c17c0)"><path fill="#ffffff" d="M 200.800781 174.632812 C 200.800781 182.21875 200.996094 188.539062 197.160156 195.273438 C 194.066406 200.746094 189.164062 204.113281 183.691406 204.113281 C 176.21875 204.113281 171.867188 198.417969 171.867188 190.015625 C 171.867188 173.425781 186.730469 170.417969 200.800781 170.417969 Z M 220.425781 222.074219 C 219.140625 223.226562 217.28125 223.308594 215.832031 222.539062 C 209.371094 217.179688 208.222656 214.6875 204.660156 209.5625 C 193.984375 220.460938 186.433594 223.714844 172.578125 223.714844 C 156.210938 223.714844 143.457031 213.617188 143.457031 193.390625 C 143.457031 177.59375 152.023438 166.839844 164.207031 161.582031 C 174.773438 156.925781 189.527344 156.109375 200.800781 154.820312 L 200.800781 152.300781 C 200.800781 147.675781 201.160156 142.203125 198.445312 138.203125 C 196.066406 134.617188 191.519531 133.136719 187.519531 133.136719 C 180.105469 133.136719 173.480469 136.945312 171.867188 144.828125 C 171.539062 146.582031 170.253906 148.308594 168.496094 148.390625 L 149.609375 146.367188 C 148.023438 146.007812 146.269531 144.722656 146.707031 142.285156 C 151.066406 119.402344 171.730469 112.5 190.234375 112.5 C 199.707031 112.5 212.078125 115.019531 219.550781 122.191406 C 229.023438 131.03125 228.117188 142.828125 228.117188 155.667969 L 228.117188 185.996094 C 228.117188 195.113281 231.894531 199.109375 235.449219 204.039062 C 236.707031 205.792969 236.984375 207.898438 235.398438 209.214844 C 231.425781 212.523438 224.371094 218.6875 220.480469 222.132812 L 220.425781 222.078125 Z M 220.425781 222.074219 " fill-opacity="1" fill-rule="evenodd"/></g></svg>