<svg xmlns="http://www.w3.org/2000/svg" xmlns:xlink="http://www.w3.org/1999/xlink" width="500" zoomAndPan="magnify" viewBox="0 0 375 374.999991" height="500" preserveAspectRatio="xMidYMid meet" version="1.0"><defs><clipPath id="6bc788ce07"><path d="M 114.546875 112.5 L 260.796875 112.5 L 260.796875 262.5 L 114.546875 262.5 Z M 114.546875 112.5 " clip-rule="nonzero"/></clipPath></defs><g clip-path="url(#6bc788ce07)"><path fill="#ffffff" d="M 187.695312 262.269531 C 186.824219 262.273438 185.972656 262.136719 185.140625 261.863281 L 136.644531 245.699219 C 135.929688 245.460938 135.261719 245.128906 134.636719 244.703125 C 134.015625 244.277344 133.464844 243.773438 132.980469 243.195312 C 132.5 242.613281 132.105469 241.980469 131.804688 241.289062 C 131.5 240.597656 131.296875 239.882812 131.191406 239.132812 L 115.027344 121.929688 C 114.945312 121.359375 114.929688 120.785156 114.972656 120.207031 C 115.015625 119.632812 115.121094 119.066406 115.285156 118.511719 C 115.449219 117.957031 115.671875 117.429688 115.949219 116.921875 C 116.226562 116.414062 116.554688 115.945312 116.933594 115.507812 C 117.316406 115.074219 117.734375 114.683594 118.199219 114.335938 C 118.664062 113.992188 119.15625 113.699219 119.683594 113.457031 C 120.207031 113.21875 120.753906 113.039062 121.320312 112.914062 C 121.882812 112.792969 122.453125 112.730469 123.03125 112.730469 L 252.359375 112.730469 C 252.9375 112.730469 253.507812 112.792969 254.074219 112.914062 C 254.636719 113.039062 255.183594 113.21875 255.707031 113.457031 C 256.234375 113.695312 256.726562 113.988281 257.191406 114.335938 C 257.652344 114.679688 258.074219 115.070312 258.453125 115.503906 C 258.832031 115.941406 259.160156 116.410156 259.441406 116.914062 C 259.71875 117.421875 259.941406 117.949219 260.105469 118.503906 C 260.269531 119.058594 260.375 119.621094 260.417969 120.195312 C 260.464844 120.773438 260.445312 121.347656 260.367188 121.917969 L 244.199219 239.121094 C 244.097656 239.871094 243.894531 240.589844 243.59375 241.28125 C 243.289062 241.972656 242.894531 242.609375 242.414062 243.1875 C 241.933594 243.769531 241.378906 244.273438 240.757812 244.699219 C 240.132812 245.125 239.464844 245.457031 238.75 245.699219 L 190.25 261.863281 C 189.421875 262.136719 188.570312 262.273438 187.695312 262.269531 Z M 146.523438 231.957031 L 187.695312 245.664062 L 228.871094 231.925781 L 243.085938 128.898438 L 132.328125 128.898438 Z M 146.523438 231.957031 " fill-opacity="1" fill-rule="nonzero"/></g><path fill="#ffffff" d="M 187.695312 227.914062 C 186.90625 227.914062 186.132812 227.800781 185.371094 227.574219 L 165.164062 221.511719 C 164.464844 221.300781 163.800781 221 163.183594 220.609375 C 162.5625 220.21875 162.003906 219.753906 161.511719 219.210938 C 161.019531 218.667969 160.605469 218.070312 160.277344 217.417969 C 159.945312 216.761719 159.707031 216.078125 159.5625 215.359375 L 158.753906 211.316406 C 158.65625 210.8125 158.601562 210.300781 158.597656 209.789062 C 158.597656 209.273438 158.640625 208.761719 158.734375 208.257812 C 158.828125 207.75 158.972656 207.257812 159.160156 206.777344 C 159.347656 206.300781 159.578125 205.84375 159.855469 205.410156 C 160.128906 204.972656 160.445312 204.570312 160.796875 204.195312 C 161.148438 203.820312 161.535156 203.480469 161.953125 203.179688 C 162.371094 202.878906 162.8125 202.621094 163.277344 202.402344 C 163.746094 202.1875 164.230469 202.015625 164.726562 201.890625 C 165.226562 201.765625 165.734375 201.691406 166.25 201.664062 C 166.761719 201.636719 167.273438 201.65625 167.785156 201.726562 C 168.292969 201.796875 168.792969 201.914062 169.28125 202.082031 C 169.765625 202.246094 170.234375 202.457031 170.679688 202.710938 C 171.128906 202.964844 171.546875 203.261719 171.9375 203.59375 C 172.328125 203.929688 172.6875 204.296875 173.007812 204.699219 C 173.328125 205.105469 173.605469 205.53125 173.84375 205.988281 C 174.082031 206.445312 174.277344 206.917969 174.425781 207.414062 L 187.695312 211.394531 L 200.628906 207.511719 L 202.625 193.5625 L 179.613281 193.5625 C 178.792969 193.566406 177.988281 193.445312 177.203125 193.203125 C 176.417969 192.960938 175.6875 192.605469 175.007812 192.140625 C 174.332031 191.671875 173.738281 191.117188 173.230469 190.472656 C 172.722656 189.824219 172.324219 189.117188 172.03125 188.347656 C 171.742188 187.582031 171.570312 186.785156 171.519531 185.964844 C 171.472656 185.144531 171.546875 184.335938 171.742188 183.539062 C 171.941406 182.738281 172.25 181.988281 172.679688 181.285156 C 173.105469 180.582031 173.625 179.960938 174.242188 179.417969 L 194.730469 161.230469 L 159.40625 161.230469 C 158.875 161.230469 158.351562 161.179688 157.828125 161.074219 C 157.308594 160.972656 156.804688 160.816406 156.3125 160.613281 C 155.824219 160.410156 155.355469 160.164062 154.914062 159.867188 C 154.472656 159.574219 154.066406 159.238281 153.691406 158.863281 C 153.316406 158.488281 152.980469 158.078125 152.683594 157.636719 C 152.390625 157.195312 152.140625 156.730469 151.9375 156.242188 C 151.734375 155.75 151.582031 155.246094 151.476562 154.722656 C 151.375 154.203125 151.324219 153.679688 151.324219 153.148438 C 151.324219 152.617188 151.375 152.089844 151.476562 151.570312 C 151.582031 151.050781 151.734375 150.542969 151.9375 150.054688 C 152.140625 149.5625 152.390625 149.097656 152.683594 148.65625 C 152.980469 148.214844 153.316406 147.808594 153.691406 147.429688 C 154.066406 147.054688 154.472656 146.722656 154.914062 146.425781 C 155.355469 146.132812 155.824219 145.882812 156.3125 145.679688 C 156.804688 145.476562 157.308594 145.324219 157.828125 145.21875 C 158.351562 145.117188 158.875 145.0625 159.40625 145.0625 L 215.988281 145.0625 C 216.808594 145.0625 217.613281 145.183594 218.398438 145.425781 C 219.183594 145.667969 219.914062 146.019531 220.59375 146.488281 C 221.269531 146.953125 221.863281 147.507812 222.371094 148.15625 C 222.878906 148.800781 223.277344 149.507812 223.570312 150.277344 C 223.859375 151.046875 224.03125 151.839844 224.082031 152.660156 C 224.128906 153.480469 224.054688 154.289062 223.859375 155.089844 C 223.660156 155.886719 223.347656 156.636719 222.921875 157.339844 C 222.496094 158.042969 221.976562 158.664062 221.359375 159.210938 L 200.871094 177.394531 L 211.945312 177.394531 C 212.523438 177.394531 213.097656 177.457031 213.664062 177.582031 C 214.230469 177.703125 214.777344 177.886719 215.300781 178.125 C 215.828125 178.367188 216.324219 178.660156 216.789062 179.007812 C 217.25 179.355469 217.671875 179.746094 218.050781 180.183594 C 218.433594 180.621094 218.761719 181.09375 219.039062 181.601562 C 219.316406 182.109375 219.535156 182.640625 219.699219 183.195312 C 219.863281 183.753906 219.964844 184.320312 220.007812 184.898438 C 220.050781 185.472656 220.03125 186.050781 219.949219 186.621094 L 215.90625 214.914062 C 215.796875 215.675781 215.582031 216.410156 215.265625 217.113281 C 214.945312 217.816406 214.535156 218.457031 214.03125 219.042969 C 213.527344 219.628906 212.953125 220.128906 212.308594 220.550781 C 211.660156 220.96875 210.96875 221.292969 210.226562 221.511719 L 190.019531 227.574219 C 189.261719 227.800781 188.488281 227.914062 187.695312 227.914062 Z M 187.695312 227.914062 " fill-opacity="1" fill-rule="nonzero"/></svg>